<?xml version="1.0" encoding="utf-8" standalone="no"?>
<!DOCTYPE svg PUBLIC "-//W3C//DTD SVG 1.1//EN"
  "http://www.w3.org/Graphics/SVG/1.1/DTD/svg11.dtd">
<svg xmlns:xlink="http://www.w3.org/1999/xlink" width="460.8pt" height="345.6pt" viewBox="0 0 460.8 345.6" xmlns="http://www.w3.org/2000/svg" version="1.1">
 <metadata>
  <rdf:RDF xmlns:dc="http://purl.org/dc/elements/1.1/" xmlns:cc="http://creativecommons.org/ns#" xmlns:rdf="http://www.w3.org/1999/02/22-rdf-syntax-ns#">
   <cc:Work>
    <dc:type rdf:resource="http://purl.org/dc/dcmitype/StillImage"/>
    <dc:date>2023-08-27T22:50:45.277462</dc:date>
    <dc:format>image/svg+xml</dc:format>
    <dc:creator>
     <cc:Agent>
      <dc:title>Matplotlib v3.7.2, https://matplotlib.org/</dc:title>
     </cc:Agent>
    </dc:creator>
   </cc:Work>
  </rdf:RDF>
 </metadata>
 <defs>
  <style type="text/css">*{stroke-linejoin: round; stroke-linecap: butt}</style>
 </defs>
 <g id="figure_1">
  <g id="patch_1">
   <path d="M 0 345.6 
L 460.8 345.6 
L 460.8 0 
L 0 0 
z
" style="fill: #ffffff"/>
  </g>
  <g id="axes_1">
   <g id="patch_2">
    <path d="M 57.6 307.584 
L 414.72 307.584 
L 414.72 41.472 
L 57.6 41.472 
z
" style="fill: #ffffff"/>
   </g>
   <g id="matplotlib.axis_1">
    <g id="xtick_1">
     <g id="line2d_1">
      <defs>
       <path id="mc8c0a9a90f" d="M 0 0 
L 0 3.5 
" style="stroke: #000000; stroke-width: 0.8"/>
      </defs>
      <g>
       <use xlink:href="#mc8c0a9a90f" x="73.832727" y="307.584" style="stroke: #000000; stroke-width: 0.8"/>
      </g>
     </g>
     <g id="text_1">
      <!-- 0 -->
      <g transform="translate(70.651477 322.182437) scale(0.1 -0.1)">
       <defs>
        <path id="DejaVuSans-30" d="M 2034 4250 
Q 1547 4250 1301 3770 
Q 1056 3291 1056 2328 
Q 1056 1369 1301 889 
Q 1547 409 2034 409 
Q 2525 409 2770 889 
Q 3016 1369 3016 2328 
Q 3016 3291 2770 3770 
Q 2525 4250 2034 4250 
z
M 2034 4750 
Q 2819 4750 3233 4129 
Q 3647 3509 3647 2328 
Q 3647 1150 3233 529 
Q 2819 -91 2034 -91 
Q 1250 -91 836 529 
Q 422 1150 422 2328 
Q 422 3509 836 4129 
Q 1250 4750 2034 4750 
z
" transform="scale(0.015625)"/>
       </defs>
       <use xlink:href="#DejaVuSans-30"/>
      </g>
     </g>
    </g>
    <g id="xtick_2">
     <g id="line2d_2">
      <g>
       <use xlink:href="#mc8c0a9a90f" x="127.959861" y="307.584" style="stroke: #000000; stroke-width: 0.8"/>
      </g>
     </g>
     <g id="text_2">
      <!-- 500 -->
      <g transform="translate(118.416111 322.182437) scale(0.1 -0.1)">
       <defs>
        <path id="DejaVuSans-35" d="M 691 4666 
L 3169 4666 
L 3169 4134 
L 1269 4134 
L 1269 2991 
Q 1406 3038 1543 3061 
Q 1681 3084 1819 3084 
Q 2600 3084 3056 2656 
Q 3513 2228 3513 1497 
Q 3513 744 3044 326 
Q 2575 -91 1722 -91 
Q 1428 -91 1123 -41 
Q 819 9 494 109 
L 494 744 
Q 775 591 1075 516 
Q 1375 441 1709 441 
Q 2250 441 2565 725 
Q 2881 1009 2881 1497 
Q 2881 1984 2565 2268 
Q 2250 2553 1709 2553 
Q 1456 2553 1204 2497 
Q 953 2441 691 2322 
L 691 4666 
z
" transform="scale(0.015625)"/>
       </defs>
       <use xlink:href="#DejaVuSans-35"/>
       <use xlink:href="#DejaVuSans-30" x="63.623047"/>
       <use xlink:href="#DejaVuSans-30" x="127.246094"/>
      </g>
     </g>
    </g>
    <g id="xtick_3">
     <g id="line2d_3">
      <g>
       <use xlink:href="#mc8c0a9a90f" x="182.086994" y="307.584" style="stroke: #000000; stroke-width: 0.8"/>
      </g>
     </g>
     <g id="text_3">
      <!-- 1000 -->
      <g transform="translate(169.361994 322.182437) scale(0.1 -0.1)">
       <defs>
        <path id="DejaVuSans-31" d="M 794 531 
L 1825 531 
L 1825 4091 
L 703 3866 
L 703 4441 
L 1819 4666 
L 2450 4666 
L 2450 531 
L 3481 531 
L 3481 0 
L 794 0 
L 794 531 
z
" transform="scale(0.015625)"/>
       </defs>
       <use xlink:href="#DejaVuSans-31"/>
       <use xlink:href="#DejaVuSans-30" x="63.623047"/>
       <use xlink:href="#DejaVuSans-30" x="127.246094"/>
       <use xlink:href="#DejaVuSans-30" x="190.869141"/>
      </g>
     </g>
    </g>
    <g id="xtick_4">
     <g id="line2d_4">
      <g>
       <use xlink:href="#mc8c0a9a90f" x="236.214127" y="307.584" style="stroke: #000000; stroke-width: 0.8"/>
      </g>
     </g>
     <g id="text_4">
      <!-- 1500 -->
      <g transform="translate(223.489127 322.182437) scale(0.1 -0.1)">
       <use xlink:href="#DejaVuSans-31"/>
       <use xlink:href="#DejaVuSans-35" x="63.623047"/>
       <use xlink:href="#DejaVuSans-30" x="127.246094"/>
       <use xlink:href="#DejaVuSans-30" x="190.869141"/>
      </g>
     </g>
    </g>
    <g id="xtick_5">
     <g id="line2d_5">
      <g>
       <use xlink:href="#mc8c0a9a90f" x="290.34126" y="307.584" style="stroke: #000000; stroke-width: 0.8"/>
      </g>
     </g>
     <g id="text_5">
      <!-- 2000 -->
      <g transform="translate(277.61626 322.182437) scale(0.1 -0.1)">
       <defs>
        <path id="DejaVuSans-32" d="M 1228 531 
L 3431 531 
L 3431 0 
L 469 0 
L 469 531 
Q 828 903 1448 1529 
Q 2069 2156 2228 2338 
Q 2531 2678 2651 2914 
Q 2772 3150 2772 3378 
Q 2772 3750 2511 3984 
Q 2250 4219 1831 4219 
Q 1534 4219 1204 4116 
Q 875 4013 500 3803 
L 500 4441 
Q 881 4594 1212 4672 
Q 1544 4750 1819 4750 
Q 2544 4750 2975 4387 
Q 3406 4025 3406 3419 
Q 3406 3131 3298 2873 
Q 3191 2616 2906 2266 
Q 2828 2175 2409 1742 
Q 1991 1309 1228 531 
z
" transform="scale(0.015625)"/>
       </defs>
       <use xlink:href="#DejaVuSans-32"/>
       <use xlink:href="#DejaVuSans-30" x="63.623047"/>
       <use xlink:href="#DejaVuSans-30" x="127.246094"/>
       <use xlink:href="#DejaVuSans-30" x="190.869141"/>
      </g>
     </g>
    </g>
    <g id="xtick_6">
     <g id="line2d_6">
      <g>
       <use xlink:href="#mc8c0a9a90f" x="344.468394" y="307.584" style="stroke: #000000; stroke-width: 0.8"/>
      </g>
     </g>
     <g id="text_6">
      <!-- 2500 -->
      <g transform="translate(331.743394 322.182437) scale(0.1 -0.1)">
       <use xlink:href="#DejaVuSans-32"/>
       <use xlink:href="#DejaVuSans-35" x="63.623047"/>
       <use xlink:href="#DejaVuSans-30" x="127.246094"/>
       <use xlink:href="#DejaVuSans-30" x="190.869141"/>
      </g>
     </g>
    </g>
    <g id="xtick_7">
     <g id="line2d_7">
      <g>
       <use xlink:href="#mc8c0a9a90f" x="398.595527" y="307.584" style="stroke: #000000; stroke-width: 0.8"/>
      </g>
     </g>
     <g id="text_7">
      <!-- 3000 -->
      <g transform="translate(385.870527 322.182437) scale(0.1 -0.1)">
       <defs>
        <path id="DejaVuSans-33" d="M 2597 2516 
Q 3050 2419 3304 2112 
Q 3559 1806 3559 1356 
Q 3559 666 3084 287 
Q 2609 -91 1734 -91 
Q 1441 -91 1130 -33 
Q 819 25 488 141 
L 488 750 
Q 750 597 1062 519 
Q 1375 441 1716 441 
Q 2309 441 2620 675 
Q 2931 909 2931 1356 
Q 2931 1769 2642 2001 
Q 2353 2234 1838 2234 
L 1294 2234 
L 1294 2753 
L 1863 2753 
Q 2328 2753 2575 2939 
Q 2822 3125 2822 3475 
Q 2822 3834 2567 4026 
Q 2313 4219 1838 4219 
Q 1578 4219 1281 4162 
Q 984 4106 628 3988 
L 628 4550 
Q 988 4650 1302 4700 
Q 1616 4750 1894 4750 
Q 2613 4750 3031 4423 
Q 3450 4097 3450 3541 
Q 3450 3153 3228 2886 
Q 3006 2619 2597 2516 
z
" transform="scale(0.015625)"/>
       </defs>
       <use xlink:href="#DejaVuSans-33"/>
       <use xlink:href="#DejaVuSans-30" x="63.623047"/>
       <use xlink:href="#DejaVuSans-30" x="127.246094"/>
       <use xlink:href="#DejaVuSans-30" x="190.869141"/>
      </g>
     </g>
    </g>
    <g id="text_8">
     <!-- Episodes -->
     <g transform="translate(213.917812 335.860562) scale(0.1 -0.1)">
      <defs>
       <path id="DejaVuSans-45" d="M 628 4666 
L 3578 4666 
L 3578 4134 
L 1259 4134 
L 1259 2753 
L 3481 2753 
L 3481 2222 
L 1259 2222 
L 1259 531 
L 3634 531 
L 3634 0 
L 628 0 
L 628 4666 
z
" transform="scale(0.015625)"/>
       <path id="DejaVuSans-70" d="M 1159 525 
L 1159 -1331 
L 581 -1331 
L 581 3500 
L 1159 3500 
L 1159 2969 
Q 1341 3281 1617 3432 
Q 1894 3584 2278 3584 
Q 2916 3584 3314 3078 
Q 3713 2572 3713 1747 
Q 3713 922 3314 415 
Q 2916 -91 2278 -91 
Q 1894 -91 1617 61 
Q 1341 213 1159 525 
z
M 3116 1747 
Q 3116 2381 2855 2742 
Q 2594 3103 2138 3103 
Q 1681 3103 1420 2742 
Q 1159 2381 1159 1747 
Q 1159 1113 1420 752 
Q 1681 391 2138 391 
Q 2594 391 2855 752 
Q 3116 1113 3116 1747 
z
" transform="scale(0.015625)"/>
       <path id="DejaVuSans-69" d="M 603 3500 
L 1178 3500 
L 1178 0 
L 603 0 
L 603 3500 
z
M 603 4863 
L 1178 4863 
L 1178 4134 
L 603 4134 
L 603 4863 
z
" transform="scale(0.015625)"/>
       <path id="DejaVuSans-73" d="M 2834 3397 
L 2834 2853 
Q 2591 2978 2328 3040 
Q 2066 3103 1784 3103 
Q 1356 3103 1142 2972 
Q 928 2841 928 2578 
Q 928 2378 1081 2264 
Q 1234 2150 1697 2047 
L 1894 2003 
Q 2506 1872 2764 1633 
Q 3022 1394 3022 966 
Q 3022 478 2636 193 
Q 2250 -91 1575 -91 
Q 1294 -91 989 -36 
Q 684 19 347 128 
L 347 722 
Q 666 556 975 473 
Q 1284 391 1588 391 
Q 1994 391 2212 530 
Q 2431 669 2431 922 
Q 2431 1156 2273 1281 
Q 2116 1406 1581 1522 
L 1381 1569 
Q 847 1681 609 1914 
Q 372 2147 372 2553 
Q 372 3047 722 3315 
Q 1072 3584 1716 3584 
Q 2034 3584 2315 3537 
Q 2597 3491 2834 3397 
z
" transform="scale(0.015625)"/>
       <path id="DejaVuSans-6f" d="M 1959 3097 
Q 1497 3097 1228 2736 
Q 959 2375 959 1747 
Q 959 1119 1226 758 
Q 1494 397 1959 397 
Q 2419 397 2687 759 
Q 2956 1122 2956 1747 
Q 2956 2369 2687 2733 
Q 2419 3097 1959 3097 
z
M 1959 3584 
Q 2709 3584 3137 3096 
Q 3566 2609 3566 1747 
Q 3566 888 3137 398 
Q 2709 -91 1959 -91 
Q 1206 -91 779 398 
Q 353 888 353 1747 
Q 353 2609 779 3096 
Q 1206 3584 1959 3584 
z
" transform="scale(0.015625)"/>
       <path id="DejaVuSans-64" d="M 2906 2969 
L 2906 4863 
L 3481 4863 
L 3481 0 
L 2906 0 
L 2906 525 
Q 2725 213 2448 61 
Q 2172 -91 1784 -91 
Q 1150 -91 751 415 
Q 353 922 353 1747 
Q 353 2572 751 3078 
Q 1150 3584 1784 3584 
Q 2172 3584 2448 3432 
Q 2725 3281 2906 2969 
z
M 947 1747 
Q 947 1113 1208 752 
Q 1469 391 1925 391 
Q 2381 391 2643 752 
Q 2906 1113 2906 1747 
Q 2906 2381 2643 2742 
Q 2381 3103 1925 3103 
Q 1469 3103 1208 2742 
Q 947 2381 947 1747 
z
" transform="scale(0.015625)"/>
       <path id="DejaVuSans-65" d="M 3597 1894 
L 3597 1613 
L 953 1613 
Q 991 1019 1311 708 
Q 1631 397 2203 397 
Q 2534 397 2845 478 
Q 3156 559 3463 722 
L 3463 178 
Q 3153 47 2828 -22 
Q 2503 -91 2169 -91 
Q 1331 -91 842 396 
Q 353 884 353 1716 
Q 353 2575 817 3079 
Q 1281 3584 2069 3584 
Q 2775 3584 3186 3129 
Q 3597 2675 3597 1894 
z
M 3022 2063 
Q 3016 2534 2758 2815 
Q 2500 3097 2075 3097 
Q 1594 3097 1305 2825 
Q 1016 2553 972 2059 
L 3022 2063 
z
" transform="scale(0.015625)"/>
      </defs>
      <use xlink:href="#DejaVuSans-45"/>
      <use xlink:href="#DejaVuSans-70" x="63.183594"/>
      <use xlink:href="#DejaVuSans-69" x="126.660156"/>
      <use xlink:href="#DejaVuSans-73" x="154.443359"/>
      <use xlink:href="#DejaVuSans-6f" x="206.542969"/>
      <use xlink:href="#DejaVuSans-64" x="267.724609"/>
      <use xlink:href="#DejaVuSans-65" x="331.201172"/>
      <use xlink:href="#DejaVuSans-73" x="392.724609"/>
     </g>
    </g>
   </g>
   <g id="matplotlib.axis_2">
    <g id="ytick_1">
     <g id="line2d_8">
      <defs>
       <path id="mfe91467d4c" d="M 0 0 
L -3.5 0 
" style="stroke: #000000; stroke-width: 0.8"/>
      </defs>
      <g>
       <use xlink:href="#mfe91467d4c" x="57.6" y="295.488" style="stroke: #000000; stroke-width: 0.8"/>
      </g>
     </g>
     <g id="text_9">
      <!-- −21.0 -->
      <g transform="translate(19.954687 299.287219) scale(0.1 -0.1)">
       <defs>
        <path id="DejaVuSans-2212" d="M 678 2272 
L 4684 2272 
L 4684 1741 
L 678 1741 
L 678 2272 
z
" transform="scale(0.015625)"/>
        <path id="DejaVuSans-2e" d="M 684 794 
L 1344 794 
L 1344 0 
L 684 0 
L 684 794 
z
" transform="scale(0.015625)"/>
       </defs>
       <use xlink:href="#DejaVuSans-2212"/>
       <use xlink:href="#DejaVuSans-32" x="83.789062"/>
       <use xlink:href="#DejaVuSans-31" x="147.412109"/>
       <use xlink:href="#DejaVuSans-2e" x="211.035156"/>
       <use xlink:href="#DejaVuSans-30" x="242.822266"/>
      </g>
     </g>
    </g>
    <g id="ytick_2">
     <g id="line2d_9">
      <g>
       <use xlink:href="#mfe91467d4c" x="57.6" y="255.168" style="stroke: #000000; stroke-width: 0.8"/>
      </g>
     </g>
     <g id="text_10">
      <!-- −20.5 -->
      <g transform="translate(19.954687 258.967219) scale(0.1 -0.1)">
       <use xlink:href="#DejaVuSans-2212"/>
       <use xlink:href="#DejaVuSans-32" x="83.789062"/>
       <use xlink:href="#DejaVuSans-30" x="147.412109"/>
       <use xlink:href="#DejaVuSans-2e" x="211.035156"/>
       <use xlink:href="#DejaVuSans-35" x="242.822266"/>
      </g>
     </g>
    </g>
    <g id="ytick_3">
     <g id="line2d_10">
      <g>
       <use xlink:href="#mfe91467d4c" x="57.6" y="214.848" style="stroke: #000000; stroke-width: 0.8"/>
      </g>
     </g>
     <g id="text_11">
      <!-- −20.0 -->
      <g transform="translate(19.954687 218.647219) scale(0.1 -0.1)">
       <use xlink:href="#DejaVuSans-2212"/>
       <use xlink:href="#DejaVuSans-32" x="83.789062"/>
       <use xlink:href="#DejaVuSans-30" x="147.412109"/>
       <use xlink:href="#DejaVuSans-2e" x="211.035156"/>
       <use xlink:href="#DejaVuSans-30" x="242.822266"/>
      </g>
     </g>
    </g>
    <g id="ytick_4">
     <g id="line2d_11">
      <g>
       <use xlink:href="#mfe91467d4c" x="57.6" y="174.528" style="stroke: #000000; stroke-width: 0.8"/>
      </g>
     </g>
     <g id="text_12">
      <!-- −19.5 -->
      <g transform="translate(19.954687 178.327219) scale(0.1 -0.1)">
       <defs>
        <path id="DejaVuSans-39" d="M 703 97 
L 703 672 
Q 941 559 1184 500 
Q 1428 441 1663 441 
Q 2288 441 2617 861 
Q 2947 1281 2994 2138 
Q 2813 1869 2534 1725 
Q 2256 1581 1919 1581 
Q 1219 1581 811 2004 
Q 403 2428 403 3163 
Q 403 3881 828 4315 
Q 1253 4750 1959 4750 
Q 2769 4750 3195 4129 
Q 3622 3509 3622 2328 
Q 3622 1225 3098 567 
Q 2575 -91 1691 -91 
Q 1453 -91 1209 -44 
Q 966 3 703 97 
z
M 1959 2075 
Q 2384 2075 2632 2365 
Q 2881 2656 2881 3163 
Q 2881 3666 2632 3958 
Q 2384 4250 1959 4250 
Q 1534 4250 1286 3958 
Q 1038 3666 1038 3163 
Q 1038 2656 1286 2365 
Q 1534 2075 1959 2075 
z
" transform="scale(0.015625)"/>
       </defs>
       <use xlink:href="#DejaVuSans-2212"/>
       <use xlink:href="#DejaVuSans-31" x="83.789062"/>
       <use xlink:href="#DejaVuSans-39" x="147.412109"/>
       <use xlink:href="#DejaVuSans-2e" x="211.035156"/>
       <use xlink:href="#DejaVuSans-35" x="242.822266"/>
      </g>
     </g>
    </g>
    <g id="ytick_5">
     <g id="line2d_12">
      <g>
       <use xlink:href="#mfe91467d4c" x="57.6" y="134.208" style="stroke: #000000; stroke-width: 0.8"/>
      </g>
     </g>
     <g id="text_13">
      <!-- −19.0 -->
      <g transform="translate(19.954687 138.007219) scale(0.1 -0.1)">
       <use xlink:href="#DejaVuSans-2212"/>
       <use xlink:href="#DejaVuSans-31" x="83.789062"/>
       <use xlink:href="#DejaVuSans-39" x="147.412109"/>
       <use xlink:href="#DejaVuSans-2e" x="211.035156"/>
       <use xlink:href="#DejaVuSans-30" x="242.822266"/>
      </g>
     </g>
    </g>
    <g id="ytick_6">
     <g id="line2d_13">
      <g>
       <use xlink:href="#mfe91467d4c" x="57.6" y="93.888" style="stroke: #000000; stroke-width: 0.8"/>
      </g>
     </g>
     <g id="text_14">
      <!-- −18.5 -->
      <g transform="translate(19.954687 97.687219) scale(0.1 -0.1)">
       <defs>
        <path id="DejaVuSans-38" d="M 2034 2216 
Q 1584 2216 1326 1975 
Q 1069 1734 1069 1313 
Q 1069 891 1326 650 
Q 1584 409 2034 409 
Q 2484 409 2743 651 
Q 3003 894 3003 1313 
Q 3003 1734 2745 1975 
Q 2488 2216 2034 2216 
z
M 1403 2484 
Q 997 2584 770 2862 
Q 544 3141 544 3541 
Q 544 4100 942 4425 
Q 1341 4750 2034 4750 
Q 2731 4750 3128 4425 
Q 3525 4100 3525 3541 
Q 3525 3141 3298 2862 
Q 3072 2584 2669 2484 
Q 3125 2378 3379 2068 
Q 3634 1759 3634 1313 
Q 3634 634 3220 271 
Q 2806 -91 2034 -91 
Q 1263 -91 848 271 
Q 434 634 434 1313 
Q 434 1759 690 2068 
Q 947 2378 1403 2484 
z
M 1172 3481 
Q 1172 3119 1398 2916 
Q 1625 2713 2034 2713 
Q 2441 2713 2670 2916 
Q 2900 3119 2900 3481 
Q 2900 3844 2670 4047 
Q 2441 4250 2034 4250 
Q 1625 4250 1398 4047 
Q 1172 3844 1172 3481 
z
" transform="scale(0.015625)"/>
       </defs>
       <use xlink:href="#DejaVuSans-2212"/>
       <use xlink:href="#DejaVuSans-31" x="83.789062"/>
       <use xlink:href="#DejaVuSans-38" x="147.412109"/>
       <use xlink:href="#DejaVuSans-2e" x="211.035156"/>
       <use xlink:href="#DejaVuSans-35" x="242.822266"/>
      </g>
     </g>
    </g>
    <g id="ytick_7">
     <g id="line2d_14">
      <g>
       <use xlink:href="#mfe91467d4c" x="57.6" y="53.568" style="stroke: #000000; stroke-width: 0.8"/>
      </g>
     </g>
     <g id="text_15">
      <!-- −18.0 -->
      <g transform="translate(19.954687 57.367219) scale(0.1 -0.1)">
       <use xlink:href="#DejaVuSans-2212"/>
       <use xlink:href="#DejaVuSans-31" x="83.789062"/>
       <use xlink:href="#DejaVuSans-38" x="147.412109"/>
       <use xlink:href="#DejaVuSans-2e" x="211.035156"/>
       <use xlink:href="#DejaVuSans-30" x="242.822266"/>
      </g>
     </g>
    </g>
    <g id="text_16">
     <!-- Returns -->
     <g transform="translate(13.875 193.724094) rotate(-90) scale(0.1 -0.1)">
      <defs>
       <path id="DejaVuSans-52" d="M 2841 2188 
Q 3044 2119 3236 1894 
Q 3428 1669 3622 1275 
L 4263 0 
L 3584 0 
L 2988 1197 
Q 2756 1666 2539 1819 
Q 2322 1972 1947 1972 
L 1259 1972 
L 1259 0 
L 628 0 
L 628 4666 
L 2053 4666 
Q 2853 4666 3247 4331 
Q 3641 3997 3641 3322 
Q 3641 2881 3436 2590 
Q 3231 2300 2841 2188 
z
M 1259 4147 
L 1259 2491 
L 2053 2491 
Q 2509 2491 2742 2702 
Q 2975 2913 2975 3322 
Q 2975 3731 2742 3939 
Q 2509 4147 2053 4147 
L 1259 4147 
z
" transform="scale(0.015625)"/>
       <path id="DejaVuSans-74" d="M 1172 4494 
L 1172 3500 
L 2356 3500 
L 2356 3053 
L 1172 3053 
L 1172 1153 
Q 1172 725 1289 603 
Q 1406 481 1766 481 
L 2356 481 
L 2356 0 
L 1766 0 
Q 1100 0 847 248 
Q 594 497 594 1153 
L 594 3053 
L 172 3053 
L 172 3500 
L 594 3500 
L 594 4494 
L 1172 4494 
z
" transform="scale(0.015625)"/>
       <path id="DejaVuSans-75" d="M 544 1381 
L 544 3500 
L 1119 3500 
L 1119 1403 
Q 1119 906 1312 657 
Q 1506 409 1894 409 
Q 2359 409 2629 706 
Q 2900 1003 2900 1516 
L 2900 3500 
L 3475 3500 
L 3475 0 
L 2900 0 
L 2900 538 
Q 2691 219 2414 64 
Q 2138 -91 1772 -91 
Q 1169 -91 856 284 
Q 544 659 544 1381 
z
M 1991 3584 
L 1991 3584 
z
" transform="scale(0.015625)"/>
       <path id="DejaVuSans-72" d="M 2631 2963 
Q 2534 3019 2420 3045 
Q 2306 3072 2169 3072 
Q 1681 3072 1420 2755 
Q 1159 2438 1159 1844 
L 1159 0 
L 581 0 
L 581 3500 
L 1159 3500 
L 1159 2956 
Q 1341 3275 1631 3429 
Q 1922 3584 2338 3584 
Q 2397 3584 2469 3576 
Q 2541 3569 2628 3553 
L 2631 2963 
z
" transform="scale(0.015625)"/>
       <path id="DejaVuSans-6e" d="M 3513 2113 
L 3513 0 
L 2938 0 
L 2938 2094 
Q 2938 2591 2744 2837 
Q 2550 3084 2163 3084 
Q 1697 3084 1428 2787 
Q 1159 2491 1159 1978 
L 1159 0 
L 581 0 
L 581 3500 
L 1159 3500 
L 1159 2956 
Q 1366 3272 1645 3428 
Q 1925 3584 2291 3584 
Q 2894 3584 3203 3211 
Q 3513 2838 3513 2113 
z
" transform="scale(0.015625)"/>
      </defs>
      <use xlink:href="#DejaVuSans-52"/>
      <use xlink:href="#DejaVuSans-65" x="64.982422"/>
      <use xlink:href="#DejaVuSans-74" x="126.505859"/>
      <use xlink:href="#DejaVuSans-75" x="165.714844"/>
      <use xlink:href="#DejaVuSans-72" x="229.09375"/>
      <use xlink:href="#DejaVuSans-6e" x="268.457031"/>
      <use xlink:href="#DejaVuSans-73" x="331.835938"/>
     </g>
    </g>
   </g>
   <g id="line2d_15">
    <path d="M 73.832727 295.488 
L 74.590507 295.488 
L 74.698761 214.848 
L 74.91527 295.488 
L 75.131778 295.488 
L 75.348287 214.848 
L 75.564796 295.488 
L 75.889558 295.488 
L 75.997813 134.208 
L 76.106067 295.488 
L 76.214321 134.208 
L 76.322575 295.488 
L 76.43083 214.848 
L 76.647338 295.488 
L 77.080355 295.488 
L 77.18861 214.848 
L 77.296864 295.488 
L 77.513372 134.208 
L 77.729881 295.488 
L 82.601323 295.488 
L 82.709577 214.848 
L 82.926086 295.488 
L 83.683866 295.488 
L 83.79212 214.848 
L 83.900374 295.488 
L 84.008628 214.848 
L 84.225137 295.488 
L 84.874662 295.488 
L 84.982917 214.848 
L 85.199425 295.488 
L 87.689273 295.488 
L 87.797528 134.208 
L 88.014036 295.488 
L 88.12229 214.848 
L 88.338799 295.488 
L 90.287376 295.488 
L 90.39563 53.568 
L 90.828647 295.488 
L 92.66897 295.488 
L 92.993732 134.208 
L 93.210241 295.488 
L 94.617546 295.488 
L 94.834055 214.848 
L 94.942309 214.848 
L 95.158818 295.488 
L 95.916598 295.488 
L 96.024852 214.848 
L 96.133106 295.488 
L 96.349615 214.848 
L 96.566123 295.488 
L 97.215649 295.488 
L 97.323903 214.848 
L 97.540412 295.488 
L 98.298192 295.488 
L 98.5147 214.848 
L 98.731209 295.488 
L 98.839463 295.488 
L 98.947717 214.848 
L 99.164226 295.488 
L 99.27248 214.848 
L 99.488988 295.488 
L 100.03026 295.488 
L 100.138514 214.848 
L 100.355023 295.488 
L 100.896294 295.488 
L 101.112802 134.208 
L 101.329311 295.488 
L 101.54582 295.488 
L 101.654074 214.848 
L 101.870582 295.488 
L 101.978837 295.488 
L 102.087091 214.848 
L 102.195345 295.488 
L 102.303599 214.848 
L 102.520108 295.488 
L 103.169634 295.488 
L 103.386142 214.848 
L 103.602651 295.488 
L 104.468685 295.488 
L 104.576939 214.848 
L 104.793448 295.488 
L 104.901702 295.488 
L 105.009956 214.848 
L 105.226465 295.488 
L 105.767736 295.488 
L 105.87599 214.848 
L 106.092499 295.488 
L 107.175041 295.488 
L 107.39155 214.848 
L 107.608058 214.848 
L 107.824567 295.488 
L 108.90711 295.488 
L 109.015364 214.848 
L 109.231872 295.488 
L 109.340127 214.848 
L 109.556635 295.488 
L 109.773144 295.488 
L 109.881398 214.848 
L 110.097907 295.488 
L 110.206161 134.208 
L 110.422669 295.488 
L 110.530924 214.848 
L 110.747432 295.488 
L 110.963941 295.488 
L 111.072195 214.848 
L 111.288704 295.488 
L 114.536332 295.488 
L 114.644586 214.848 
L 114.861094 295.488 
L 115.077603 295.488 
L 115.185857 214.848 
L 115.402366 295.488 
L 115.51062 295.488 
L 115.618874 214.848 
L 115.727128 295.488 
L 115.835383 214.848 
L 116.051891 295.488 
L 116.2684 295.488 
L 116.376654 214.848 
L 116.593163 295.488 
L 116.809671 214.848 
L 117.02618 214.848 
L 117.242688 295.488 
L 117.675705 295.488 
L 117.78396 214.848 
L 118.000468 295.488 
L 118.108722 214.848 
L 118.216977 295.488 
L 118.325231 53.568 
L 118.541739 295.488 
L 118.866502 295.488 
L 119.083011 214.848 
L 119.299519 295.488 
L 119.840791 295.488 
L 119.949045 214.848 
L 120.057299 295.488 
L 120.165553 214.848 
L 120.382062 295.488 
L 121.031587 295.488 
L 121.139842 214.848 
L 121.35635 295.488 
L 121.572859 214.848 
L 121.789367 295.488 
L 123.304927 295.488 
L 123.413181 214.848 
L 123.62969 295.488 
L 124.062707 295.488 
L 124.170961 214.848 
L 124.38747 295.488 
L 124.495724 295.488 
L 124.603978 214.848 
L 124.820487 295.488 
L 124.928741 295.488 
L 125.036995 214.848 
L 125.253504 295.488 
L 125.361758 295.488 
L 125.470012 214.848 
L 125.686521 295.488 
L 126.011284 295.488 
L 126.119538 214.848 
L 126.227792 295.488 
L 126.336047 214.848 
L 126.444301 295.488 
L 126.552555 214.848 
L 126.769064 295.488 
L 126.877318 214.848 
L 126.985572 295.488 
L 127.202081 214.848 
L 127.418589 295.488 
L 129.042403 295.488 
L 129.150657 214.848 
L 129.367166 295.488 
L 129.800183 295.488 
L 129.908437 214.848 
L 130.124946 295.488 
L 130.666217 295.488 
L 130.882726 134.208 
L 130.99098 295.488 
L 131.099234 214.848 
L 131.315743 295.488 
L 131.532251 295.488 
L 131.640506 214.848 
L 131.857014 295.488 
L 133.047811 295.488 
L 133.156065 214.848 
L 133.372574 295.488 
L 134.238608 295.488 
L 134.346862 214.848 
L 134.563371 295.488 
L 135.104642 295.488 
L 135.212896 214.848 
L 135.429405 295.488 
L 137.053219 295.488 
L 137.161473 214.848 
L 137.377982 295.488 
L 137.919253 295.488 
L 138.135762 214.848 
L 138.244016 214.848 
L 138.460524 295.488 
L 139.434813 295.488 
L 139.543067 214.848 
L 139.759576 295.488 
L 139.976084 214.848 
L 140.084338 295.488 
L 140.192593 214.848 
L 140.409101 295.488 
L 140.517355 134.208 
L 140.733864 295.488 
L 140.950373 214.848 
L 141.058627 295.488 
L 141.166881 214.848 
L 141.275135 295.488 
L 141.491644 214.848 
L 141.708152 295.488 
L 142.790695 295.488 
L 142.898949 214.848 
L 143.115458 295.488 
L 143.981492 295.488 
L 144.089746 214.848 
L 144.306255 295.488 
L 144.522763 295.488 
L 144.631018 214.848 
L 144.847526 295.488 
L 144.95578 214.848 
L 145.172289 295.488 
L 146.47134 295.488 
L 146.687849 214.848 
L 146.904357 295.488 
L 147.120866 295.488 
L 147.22912 214.848 
L 147.445629 295.488 
L 149.069443 295.488 
L 149.285951 214.848 
L 149.394205 214.848 
L 149.610714 295.488 
L 150.043731 295.488 
L 150.151985 214.848 
L 150.368494 295.488 
L 151.451036 295.488 
L 151.559291 214.848 
L 151.775799 295.488 
L 153.399613 295.488 
L 153.507867 134.208 
L 153.83263 295.488 
L 155.131681 295.488 
L 155.239936 214.848 
L 155.456444 295.488 
L 155.997716 295.488 
L 156.10597 214.848 
L 156.322478 295.488 
L 156.538987 295.488 
L 156.755495 214.848 
L 156.972004 295.488 
L 157.62153 295.488 
L 157.729784 134.208 
L 157.946292 295.488 
L 158.704072 295.488 
L 158.812327 214.848 
L 159.028835 295.488 
L 161.19392 295.488 
L 161.302175 214.848 
L 161.518683 295.488 
L 162.059955 295.488 
L 162.168209 214.848 
L 162.384717 295.488 
L 163.359006 295.488 
L 163.575514 214.848 
L 163.683769 214.848 
L 163.900277 295.488 
L 164.008531 214.848 
L 164.22504 295.488 
L 164.333294 295.488 
L 164.441548 214.848 
L 164.549803 295.488 
L 164.658057 134.208 
L 164.766311 295.488 
L 164.874565 214.848 
L 165.091074 295.488 
L 165.199328 295.488 
L 165.307583 214.848 
L 165.524091 295.488 
L 165.7406 295.488 
L 165.848854 214.848 
L 166.065362 295.488 
L 166.173617 214.848 
L 166.390125 295.488 
L 167.039651 295.488 
L 167.147905 134.208 
L 167.364414 295.488 
L 167.472668 214.848 
L 167.689176 295.488 
L 167.797431 214.848 
L 168.013939 295.488 
L 168.879973 295.488 
L 168.988228 214.848 
L 169.096482 295.488 
L 169.204736 214.848 
L 169.421245 295.488 
L 170.612042 295.488 
L 170.720296 214.848 
L 170.936804 295.488 
L 171.478076 295.488 
L 171.58633 214.848 
L 171.802839 295.488 
L 172.885381 295.488 
L 172.993635 214.848 
L 173.210144 295.488 
L 173.534907 295.488 
L 173.643161 214.848 
L 173.85967 295.488 
L 174.292687 295.488 
L 174.400941 214.848 
L 174.617449 295.488 
L 175.158721 295.488 
L 175.266975 214.848 
L 175.483484 295.488 
L 175.916501 295.488 
L 176.024755 214.848 
L 176.241263 295.488 
L 176.566026 295.488 
L 176.674281 214.848 
L 176.890789 295.488 
L 178.081586 295.488 
L 178.18984 214.848 
L 178.406349 295.488 
L 178.514603 295.488 
L 178.622857 134.208 
L 178.839366 295.488 
L 179.7054 295.488 
L 179.813654 214.848 
L 180.030163 295.488 
L 181.762231 295.488 
L 181.870485 214.848 
L 182.086994 295.488 
L 183.819062 295.488 
L 183.927316 214.848 
L 184.035571 295.488 
L 184.143825 214.848 
L 184.360333 295.488 
L 185.118113 295.488 
L 185.334622 214.848 
L 185.55113 295.488 
L 186.200656 295.488 
L 186.30891 214.848 
L 186.525419 295.488 
L 187.283199 295.488 
L 187.499707 214.848 
L 187.716216 295.488 
L 189.773047 295.488 
L 189.881301 214.848 
L 190.09781 295.488 
L 190.855589 295.488 
L 191.072098 214.848 
L 191.288607 295.488 
L 191.721624 295.488 
L 191.829878 214.848 
L 191.938132 295.488 
L 192.046386 214.848 
L 192.262895 295.488 
L 193.453692 295.488 
L 193.561946 214.848 
L 193.778455 295.488 
L 193.886709 214.848 
L 194.103217 295.488 
L 194.752743 295.488 
L 194.860997 214.848 
L 194.969252 295.488 
L 195.077506 134.208 
L 195.402269 295.488 
L 195.618777 295.488 
L 195.727031 214.848 
L 195.94354 295.488 
L 196.051794 295.488 
L 196.268303 214.848 
L 196.484811 295.488 
L 196.593066 134.208 
L 196.809574 295.488 
L 196.917828 214.848 
L 197.134337 295.488 
L 197.4591 295.488 
L 197.567354 134.208 
L 197.783862 295.488 
L 198.000371 295.488 
L 198.108625 134.208 
L 198.325134 295.488 
L 198.541642 295.488 
L 198.649897 214.848 
L 198.758151 295.488 
L 198.866405 214.848 
L 199.082914 295.488 
L 199.191168 214.848 
L 199.407676 295.488 
L 200.381965 295.488 
L 200.490219 214.848 
L 200.706728 295.488 
L 200.814982 295.488 
L 200.923236 214.848 
L 201.03149 295.488 
L 201.139745 214.848 
L 201.356253 295.488 
L 201.681016 295.488 
L 201.78927 214.848 
L 202.005779 295.488 
L 202.222287 295.488 
L 202.330542 134.208 
L 202.54705 295.488 
L 202.655304 295.488 
L 202.763559 134.208 
L 203.088322 295.488 
L 204.928644 295.488 
L 205.036898 214.848 
L 205.253407 295.488 
L 206.011187 295.488 
L 206.119441 214.848 
L 206.33595 295.488 
L 206.768967 295.488 
L 206.877221 214.848 
L 206.985475 295.488 
L 207.093729 214.848 
L 207.310238 295.488 
L 207.418492 295.488 
L 207.526746 214.848 
L 207.743255 295.488 
L 208.068018 295.488 
L 208.176272 214.848 
L 208.284526 295.488 
L 208.609289 53.568 
L 208.825798 295.488 
L 208.934052 214.848 
L 209.15056 295.488 
L 209.258815 134.208 
L 209.367069 295.488 
L 209.583578 214.848 
L 209.800086 295.488 
L 209.90834 295.488 
L 210.124849 134.208 
L 210.233103 295.488 
L 210.341357 214.848 
L 210.557866 295.488 
L 210.66612 214.848 
L 210.882629 295.488 
L 211.099137 295.488 
L 211.207392 214.848 
L 211.4239 295.488 
L 212.831206 295.488 
L 212.93946 214.848 
L 213.047714 295.488 
L 213.155968 214.848 
L 213.372477 295.488 
L 213.480731 214.848 
L 213.69724 295.488 
L 215.429308 295.488 
L 215.537562 214.848 
L 215.645816 295.488 
L 215.754071 214.848 
L 215.970579 295.488 
L 216.295342 295.488 
L 216.511851 214.848 
L 216.728359 295.488 
L 217.486139 295.488 
L 217.594393 214.848 
L 217.702648 295.488 
L 217.810902 214.848 
L 218.02741 295.488 
L 218.243919 214.848 
L 218.460427 295.488 
L 218.676936 295.488 
L 219.001699 134.208 
L 219.218207 295.488 
L 219.54297 295.488 
L 219.651224 214.848 
L 219.867733 295.488 
L 221.05853 295.488 
L 221.166784 214.848 
L 221.383293 295.488 
L 223.007107 295.488 
L 223.115361 214.848 
L 223.331869 295.488 
L 224.089649 295.488 
L 224.197904 214.848 
L 224.414412 295.488 
L 224.522666 295.488 
L 224.630921 214.848 
L 224.847429 295.488 
L 224.955683 295.488 
L 225.172192 214.848 
L 225.3887 295.488 
L 225.713463 295.488 
L 225.821718 214.848 
L 226.038226 295.488 
L 226.254735 295.488 
L 226.362989 214.848 
L 226.579497 295.488 
L 228.095057 295.488 
L 228.311566 214.848 
L 228.41982 295.488 
L 228.528074 214.848 
L 228.744583 295.488 
L 228.852837 295.488 
L 228.961091 214.848 
L 229.1776 295.488 
L 229.285854 295.488 
L 229.502363 214.848 
L 229.610617 295.488 
L 229.718871 214.848 
L 229.93538 295.488 
L 233.291262 295.488 
L 233.399516 214.848 
L 233.616025 295.488 
L 233.724279 295.488 
L 233.832533 134.208 
L 234.049042 295.488 
L 234.806822 295.488 
L 234.915076 214.848 
L 235.131584 295.488 
L 235.564602 295.488 
L 235.672856 214.848 
L 235.889364 295.488 
L 237.188416 295.488 
L 237.29667 214.848 
L 237.404924 295.488 
L 237.513178 214.848 
L 237.729687 295.488 
L 238.05445 295.488 
L 238.162704 214.848 
L 238.270958 295.488 
L 238.487467 214.848 
L 238.595721 295.488 
L 238.81223 134.208 
L 239.028738 295.488 
L 239.786518 295.488 
L 239.894772 214.848 
L 240.111281 295.488 
L 240.977315 295.488 
L 241.085569 214.848 
L 241.302078 295.488 
L 241.62684 295.488 
L 241.735095 214.848 
L 241.951603 295.488 
L 242.709383 295.488 
L 242.817637 214.848 
L 242.925892 295.488 
L 243.034146 214.848 
L 243.250654 295.488 
L 243.358909 214.848 
L 243.575417 295.488 
L 243.683672 214.848 
L 243.90018 295.488 
L 244.224943 295.488 
L 244.333197 214.848 
L 244.549706 295.488 
L 244.874468 295.488 
L 244.982723 134.208 
L 245.199231 295.488 
L 245.632248 295.488 
L 245.740503 214.848 
L 245.957011 295.488 
L 246.17352 295.488 
L 246.281774 214.848 
L 246.498282 295.488 
L 247.689079 295.488 
L 247.797334 214.848 
L 248.013842 295.488 
L 248.230351 295.488 
L 248.338605 53.568 
L 248.555114 295.488 
L 249.962419 295.488 
L 250.070673 214.848 
L 250.287182 295.488 
L 251.044962 295.488 
L 251.153216 214.848 
L 251.369724 295.488 
L 252.127504 295.488 
L 252.235759 214.848 
L 252.452267 295.488 
L 252.885284 295.488 
L 252.993538 214.848 
L 253.210047 295.488 
L 253.53481 295.488 
L 253.643064 214.848 
L 253.859573 295.488 
L 255.266878 295.488 
L 255.375132 214.848 
L 255.591641 295.488 
L 256.132912 295.488 
L 256.241166 214.848 
L 256.457675 295.488 
L 256.674184 295.488 
L 256.890692 134.208 
L 256.998946 295.488 
L 257.215455 214.848 
L 257.431963 295.488 
L 257.540218 295.488 
L 257.648472 214.848 
L 257.86498 295.488 
L 258.189743 295.488 
L 258.297998 214.848 
L 258.514506 295.488 
L 258.839269 295.488 
L 258.947523 214.848 
L 259.164032 295.488 
L 260.571337 295.488 
L 260.787846 214.848 
L 261.004354 295.488 
L 261.437371 295.488 
L 261.545626 214.848 
L 261.762134 295.488 
L 261.870388 295.488 
L 261.978643 214.848 
L 262.195151 295.488 
L 262.303405 214.848 
L 262.519914 295.488 
L 262.844677 295.488 
L 262.952931 214.848 
L 263.061185 295.488 
L 263.16944 214.848 
L 263.385948 295.488 
L 263.710711 295.488 
L 263.927219 214.848 
L 264.143728 295.488 
L 264.251982 295.488 
L 264.468491 134.208 
L 264.684999 295.488 
L 264.901508 295.488 
L 265.009762 134.208 
L 265.334525 295.488 
L 265.442779 295.488 
L 265.551033 214.848 
L 265.767542 295.488 
L 266.092305 295.488 
L 266.200559 214.848 
L 266.417068 295.488 
L 266.633576 214.848 
L 266.74183 295.488 
L 266.958339 214.848 
L 267.174847 295.488 
L 267.824373 295.488 
L 267.932627 214.848 
L 268.149136 295.488 
L 268.25739 214.848 
L 268.473899 295.488 
L 269.339933 295.488 
L 269.448187 214.848 
L 269.664696 295.488 
L 269.77295 214.848 
L 269.989458 295.488 
L 270.097713 214.848 
L 270.314221 295.488 
L 270.747238 295.488 
L 270.855492 214.848 
L 271.072001 295.488 
L 271.829781 295.488 
L 271.938035 214.848 
L 272.154544 295.488 
L 273.345341 295.488 
L 273.453595 214.848 
L 273.670103 295.488 
L 273.886612 295.488 
L 273.994866 214.848 
L 274.211375 295.488 
L 275.185663 295.488 
L 275.293917 214.848 
L 275.510426 295.488 
L 275.726934 295.488 
L 275.835189 214.848 
L 276.051697 295.488 
L 278.433291 295.488 
L 278.541545 214.848 
L 278.758054 295.488 
L 281.139648 295.488 
L 281.247902 214.848 
L 281.464411 295.488 
L 281.572665 295.488 
L 281.680919 214.848 
L 281.897428 295.488 
L 283.521242 295.488 
L 283.629496 214.848 
L 283.846004 295.488 
L 283.954259 295.488 
L 284.062513 214.848 
L 284.279021 295.488 
L 285.578073 295.488 
L 285.686327 214.848 
L 285.902835 295.488 
L 286.01109 295.488 
L 286.119344 214.848 
L 286.335853 295.488 
L 287.093632 295.488 
L 287.201887 214.848 
L 287.418395 295.488 
L 287.526649 295.488 
L 287.743158 214.848 
L 287.959667 295.488 
L 289.042209 295.488 
L 289.150463 214.848 
L 289.366972 295.488 
L 290.774277 295.488 
L 290.882532 214.848 
L 290.990786 295.488 
L 291.09904 214.848 
L 291.315549 295.488 
L 291.423803 295.488 
L 291.532057 214.848 
L 291.748566 295.488 
L 291.85682 214.848 
L 292.073329 295.488 
L 292.181583 214.848 
L 292.289837 295.488 
L 292.398091 134.208 
L 292.722854 295.488 
L 293.37238 295.488 
L 293.480634 214.848 
L 293.697143 295.488 
L 295.970482 295.488 
L 296.078737 134.208 
L 296.295245 295.488 
L 297.269533 295.488 
L 297.377788 214.848 
L 297.594296 295.488 
L 297.702551 214.848 
L 297.919059 295.488 
L 298.027313 295.488 
L 298.243822 214.848 
L 298.46033 295.488 
L 298.676839 295.488 
L 298.785093 214.848 
L 299.001602 295.488 
L 299.21811 295.488 
L 299.326365 214.848 
L 299.434619 295.488 
L 299.651127 214.848 
L 299.867636 295.488 
L 300.084144 295.488 
L 300.192399 214.848 
L 300.408907 295.488 
L 301.49145 295.488 
L 301.599704 214.848 
L 301.816213 295.488 
L 301.924467 295.488 
L 302.032721 53.568 
L 302.24923 295.488 
L 302.357484 134.208 
L 302.573993 295.488 
L 302.898755 295.488 
L 303.115264 214.848 
L 303.331772 295.488 
L 304.414315 295.488 
L 304.522569 214.848 
L 304.739078 295.488 
L 306.795909 295.488 
L 306.904163 214.848 
L 307.120672 295.488 
L 307.228926 214.848 
L 307.445435 295.488 
L 308.311469 295.488 
L 308.419723 214.848 
L 308.527977 295.488 
L 308.636231 214.848 
L 308.85274 295.488 
L 309.61052 295.488 
L 309.718774 214.848 
L 309.935283 295.488 
L 312.316877 295.488 
L 312.425131 214.848 
L 312.641639 295.488 
L 312.858148 295.488 
L 312.966402 214.848 
L 313.182911 295.488 
L 313.940691 295.488 
L 314.048945 214.848 
L 314.265453 295.488 
L 314.481962 295.488 
L 314.590216 214.848 
L 314.806725 295.488 
L 316.647047 295.488 
L 316.755301 214.848 
L 316.97181 295.488 
L 317.080064 134.208 
L 317.404827 295.488 
L 317.621336 295.488 
L 317.72959 214.848 
L 317.946098 295.488 
L 319.028641 295.488 
L 319.136895 214.848 
L 319.353404 295.488 
L 319.569912 295.488 
L 319.678167 214.848 
L 319.894675 295.488 
L 320.760709 295.488 
L 320.977218 214.848 
L 321.085472 295.488 
L 321.193726 214.848 
L 321.410235 295.488 
L 322.925795 295.488 
L 323.034049 214.848 
L 323.250557 295.488 
L 324.116592 295.488 
L 324.224846 214.848 
L 324.3331 295.488 
L 324.441354 214.848 
L 324.657863 295.488 
L 326.389931 295.488 
L 326.498185 214.848 
L 326.714694 295.488 
L 326.822948 214.848 
L 326.931203 295.488 
L 327.039457 214.848 
L 327.147711 295.488 
L 327.255965 214.848 
L 327.472474 295.488 
L 327.905491 295.488 
L 328.013745 214.848 
L 328.230254 295.488 
L 328.771525 295.488 
L 328.879779 214.848 
L 329.096288 295.488 
L 329.529305 295.488 
L 329.637559 214.848 
L 329.854068 295.488 
L 330.070576 295.488 
L 330.178831 214.848 
L 330.395339 295.488 
L 331.153119 295.488 
L 331.261373 214.848 
L 331.477882 295.488 
L 331.802645 295.488 
L 332.019153 214.848 
L 332.235662 295.488 
L 332.343916 295.488 
L 332.45217 214.848 
L 332.668679 295.488 
L 332.776933 214.848 
L 332.993441 295.488 
L 334.617255 295.488 
L 334.72551 214.848 
L 334.942018 295.488 
L 336.565832 295.488 
L 336.674087 214.848 
L 336.890595 295.488 
L 337.540121 295.488 
L 337.648375 214.848 
L 337.864883 295.488 
L 338.622663 295.488 
L 338.730918 214.848 
L 338.839172 295.488 
L 338.947426 214.848 
L 339.163935 295.488 
L 339.272189 214.848 
L 339.488697 295.488 
L 340.679494 295.488 
L 340.787749 214.848 
L 341.004257 295.488 
L 341.220766 214.848 
L 341.437274 295.488 
L 342.519817 295.488 
L 342.628071 214.848 
L 342.84458 295.488 
L 343.169343 295.488 
L 343.385851 214.848 
L 343.494105 214.848 
L 343.710614 295.488 
L 344.035377 295.488 
L 344.143631 214.848 
L 344.360139 295.488 
L 344.793157 295.488 
L 344.901411 214.848 
L 345.117919 295.488 
L 346.200462 295.488 
L 346.308716 214.848 
L 346.525225 295.488 
L 346.633479 214.848 
L 346.849988 295.488 
L 346.958242 134.208 
L 347.17475 295.488 
L 347.283005 214.848 
L 347.499513 295.488 
L 347.93253 295.488 
L 348.040785 214.848 
L 348.257293 295.488 
L 350.747141 295.488 
L 350.855395 214.848 
L 350.96365 295.488 
L 351.071904 214.848 
L 351.288413 295.488 
L 351.504921 295.488 
L 351.613175 214.848 
L 351.829684 295.488 
L 352.695718 295.488 
L 352.803972 214.848 
L 353.020481 295.488 
L 353.670006 295.488 
L 353.778261 214.848 
L 353.886515 295.488 
L 353.994769 214.848 
L 354.211278 295.488 
L 354.644295 295.488 
L 354.752549 214.848 
L 354.969058 295.488 
L 355.618583 295.488 
L 355.726837 134.208 
L 356.0516 295.488 
L 357.458906 295.488 
L 357.56716 214.848 
L 357.675414 295.488 
L 357.783668 214.848 
L 357.891923 295.488 
L 358.000177 214.848 
L 358.108431 295.488 
L 358.216686 214.848 
L 358.32494 295.488 
L 358.433194 214.848 
L 358.649703 295.488 
L 359.515737 295.488 
L 359.623991 214.848 
L 359.8405 295.488 
L 361.139551 295.488 
L 361.247805 214.848 
L 361.464314 295.488 
L 362.113839 295.488 
L 362.222093 214.848 
L 362.438602 295.488 
L 363.304636 295.488 
L 363.521145 214.848 
L 363.629399 295.488 
L 363.737653 214.848 
L 363.954162 295.488 
L 364.062416 214.848 
L 364.278924 295.488 
L 364.387179 214.848 
L 364.603687 295.488 
L 365.144959 295.488 
L 365.253213 214.848 
L 365.469721 295.488 
L 365.68623 295.488 
L 365.794484 214.848 
L 366.010993 295.488 
L 366.335756 295.488 
L 366.44401 214.848 
L 366.660518 295.488 
L 367.418298 295.488 
L 367.526552 214.848 
L 367.634807 295.488 
L 367.743061 214.848 
L 367.95957 295.488 
L 369.691638 295.488 
L 369.799892 53.568 
L 370.016401 295.488 
L 370.557672 295.488 
L 370.665926 134.208 
L 370.990689 295.488 
L 371.207198 295.488 
L 371.315452 214.848 
L 371.53196 295.488 
L 371.964977 295.488 
L 372.073232 214.848 
L 372.181486 295.488 
L 372.28974 214.848 
L 372.397994 295.488 
L 372.506249 214.848 
L 372.722757 295.488 
L 373.04752 295.488 
L 373.155774 214.848 
L 373.372283 295.488 
L 373.480537 214.848 
L 373.697046 295.488 
L 374.346571 295.488 
L 374.56308 214.848 
L 374.671334 214.848 
L 374.887843 295.488 
L 375.32086 295.488 
L 375.429114 214.848 
L 375.645622 295.488 
L 375.753877 214.848 
L 375.970385 295.488 
L 376.944674 295.488 
L 377.052928 214.848 
L 377.269436 295.488 
L 377.377691 295.488 
L 377.485945 214.848 
L 377.702454 295.488 
L 380.625319 295.488 
L 380.733573 214.848 
L 380.950082 295.488 
L 381.058336 214.848 
L 381.274844 295.488 
L 381.599607 295.488 
L 381.816116 214.848 
L 381.92437 214.848 
L 382.140878 295.488 
L 382.357387 295.488 
L 382.573896 214.848 
L 382.790404 295.488 
L 383.331675 295.488 
L 383.43993 214.848 
L 383.656438 295.488 
L 383.872947 295.488 
L 383.981201 134.208 
L 384.19771 295.488 
L 384.738981 295.488 
L 384.955489 134.208 
L 385.171998 295.488 
L 386.687558 295.488 
L 386.904066 214.848 
L 387.120575 295.488 
L 388.094863 295.488 
L 388.203117 214.848 
L 388.419626 295.488 
L 388.52788 214.848 
L 388.744389 295.488 
L 389.28566 295.488 
L 389.393914 214.848 
L 389.610423 295.488 
L 390.04344 295.488 
L 390.151694 214.848 
L 390.368203 295.488 
L 391.125983 295.488 
L 391.234237 134.208 
L 391.450745 295.488 
L 392.425034 295.488 
L 392.533288 214.848 
L 392.641542 295.488 
L 392.749797 214.848 
L 392.966305 295.488 
L 395.239645 295.488 
L 395.347899 214.848 
L 395.564408 295.488 
L 395.672662 214.848 
L 395.88917 295.488 
L 395.997425 295.488 
L 396.105679 214.848 
L 396.213933 295.488 
L 396.322187 214.848 
L 396.538696 295.488 
L 396.971713 295.488 
L 397.079967 214.848 
L 397.296476 295.488 
L 398.054256 295.488 
L 398.16251 214.848 
L 398.379018 295.488 
L 398.487273 295.488 
L 398.487273 295.488 
" clip-path="url(#p7e0b9b335a)" style="fill: none; stroke: #1f77b4; stroke-width: 1.5; stroke-linecap: square"/>
   </g>
   <g id="patch_3">
    <path d="M 57.6 307.584 
L 57.6 41.472 
" style="fill: none; stroke: #000000; stroke-width: 0.8; stroke-linejoin: miter; stroke-linecap: square"/>
   </g>
   <g id="patch_4">
    <path d="M 414.72 307.584 
L 414.72 41.472 
" style="fill: none; stroke: #000000; stroke-width: 0.8; stroke-linejoin: miter; stroke-linecap: square"/>
   </g>
   <g id="patch_5">
    <path d="M 57.6 307.584 
L 414.72 307.584 
" style="fill: none; stroke: #000000; stroke-width: 0.8; stroke-linejoin: miter; stroke-linecap: square"/>
   </g>
   <g id="patch_6">
    <path d="M 57.6 41.472 
L 414.72 41.472 
" style="fill: none; stroke: #000000; stroke-width: 0.8; stroke-linejoin: miter; stroke-linecap: square"/>
   </g>
   <g id="text_17">
    <!-- Pong by DQN -->
    <g transform="translate(196.470937 35.472) scale(0.12 -0.12)">
     <defs>
      <path id="DejaVuSans-50" d="M 1259 4147 
L 1259 2394 
L 2053 2394 
Q 2494 2394 2734 2622 
Q 2975 2850 2975 3272 
Q 2975 3691 2734 3919 
Q 2494 4147 2053 4147 
L 1259 4147 
z
M 628 4666 
L 2053 4666 
Q 2838 4666 3239 4311 
Q 3641 3956 3641 3272 
Q 3641 2581 3239 2228 
Q 2838 1875 2053 1875 
L 1259 1875 
L 1259 0 
L 628 0 
L 628 4666 
z
" transform="scale(0.015625)"/>
      <path id="DejaVuSans-67" d="M 2906 1791 
Q 2906 2416 2648 2759 
Q 2391 3103 1925 3103 
Q 1463 3103 1205 2759 
Q 947 2416 947 1791 
Q 947 1169 1205 825 
Q 1463 481 1925 481 
Q 2391 481 2648 825 
Q 2906 1169 2906 1791 
z
M 3481 434 
Q 3481 -459 3084 -895 
Q 2688 -1331 1869 -1331 
Q 1566 -1331 1297 -1286 
Q 1028 -1241 775 -1147 
L 775 -588 
Q 1028 -725 1275 -790 
Q 1522 -856 1778 -856 
Q 2344 -856 2625 -561 
Q 2906 -266 2906 331 
L 2906 616 
Q 2728 306 2450 153 
Q 2172 0 1784 0 
Q 1141 0 747 490 
Q 353 981 353 1791 
Q 353 2603 747 3093 
Q 1141 3584 1784 3584 
Q 2172 3584 2450 3431 
Q 2728 3278 2906 2969 
L 2906 3500 
L 3481 3500 
L 3481 434 
z
" transform="scale(0.015625)"/>
      <path id="DejaVuSans-20" transform="scale(0.015625)"/>
      <path id="DejaVuSans-62" d="M 3116 1747 
Q 3116 2381 2855 2742 
Q 2594 3103 2138 3103 
Q 1681 3103 1420 2742 
Q 1159 2381 1159 1747 
Q 1159 1113 1420 752 
Q 1681 391 2138 391 
Q 2594 391 2855 752 
Q 3116 1113 3116 1747 
z
M 1159 2969 
Q 1341 3281 1617 3432 
Q 1894 3584 2278 3584 
Q 2916 3584 3314 3078 
Q 3713 2572 3713 1747 
Q 3713 922 3314 415 
Q 2916 -91 2278 -91 
Q 1894 -91 1617 61 
Q 1341 213 1159 525 
L 1159 0 
L 581 0 
L 581 4863 
L 1159 4863 
L 1159 2969 
z
" transform="scale(0.015625)"/>
      <path id="DejaVuSans-79" d="M 2059 -325 
Q 1816 -950 1584 -1140 
Q 1353 -1331 966 -1331 
L 506 -1331 
L 506 -850 
L 844 -850 
Q 1081 -850 1212 -737 
Q 1344 -625 1503 -206 
L 1606 56 
L 191 3500 
L 800 3500 
L 1894 763 
L 2988 3500 
L 3597 3500 
L 2059 -325 
z
" transform="scale(0.015625)"/>
      <path id="DejaVuSans-44" d="M 1259 4147 
L 1259 519 
L 2022 519 
Q 2988 519 3436 956 
Q 3884 1394 3884 2338 
Q 3884 3275 3436 3711 
Q 2988 4147 2022 4147 
L 1259 4147 
z
M 628 4666 
L 1925 4666 
Q 3281 4666 3915 4102 
Q 4550 3538 4550 2338 
Q 4550 1131 3912 565 
Q 3275 0 1925 0 
L 628 0 
L 628 4666 
z
" transform="scale(0.015625)"/>
      <path id="DejaVuSans-51" d="M 2522 4238 
Q 1834 4238 1429 3725 
Q 1025 3213 1025 2328 
Q 1025 1447 1429 934 
Q 1834 422 2522 422 
Q 3209 422 3611 934 
Q 4013 1447 4013 2328 
Q 4013 3213 3611 3725 
Q 3209 4238 2522 4238 
z
M 3406 84 
L 4238 -825 
L 3475 -825 
L 2784 -78 
Q 2681 -84 2626 -87 
Q 2572 -91 2522 -91 
Q 1538 -91 948 567 
Q 359 1225 359 2328 
Q 359 3434 948 4092 
Q 1538 4750 2522 4750 
Q 3503 4750 4090 4092 
Q 4678 3434 4678 2328 
Q 4678 1516 4351 937 
Q 4025 359 3406 84 
z
" transform="scale(0.015625)"/>
      <path id="DejaVuSans-4e" d="M 628 4666 
L 1478 4666 
L 3547 763 
L 3547 4666 
L 4159 4666 
L 4159 0 
L 3309 0 
L 1241 3903 
L 1241 0 
L 628 0 
L 628 4666 
z
" transform="scale(0.015625)"/>
     </defs>
     <use xlink:href="#DejaVuSans-50"/>
     <use xlink:href="#DejaVuSans-6f" x="56.677734"/>
     <use xlink:href="#DejaVuSans-6e" x="117.859375"/>
     <use xlink:href="#DejaVuSans-67" x="181.238281"/>
     <use xlink:href="#DejaVuSans-20" x="244.714844"/>
     <use xlink:href="#DejaVuSans-62" x="276.501953"/>
     <use xlink:href="#DejaVuSans-79" x="339.978516"/>
     <use xlink:href="#DejaVuSans-20" x="399.158203"/>
     <use xlink:href="#DejaVuSans-44" x="430.945312"/>
     <use xlink:href="#DejaVuSans-51" x="507.947266"/>
     <use xlink:href="#DejaVuSans-4e" x="586.658203"/>
    </g>
   </g>
  </g>
 </g>
 <defs>
  <clipPath id="p7e0b9b335a">
   <rect x="57.6" y="41.472" width="357.12" height="266.112"/>
  </clipPath>
 </defs>
</svg>
